<svg width="40" height="40" viewBox="0 0 40 40" fill="none" xmlns="http://www.w3.org/2000/svg">
<path d="M25.7506 22.9953C26.4404 22.9953 26.9995 23.5544 26.9995 24.2442V24.8196C26.9995 25.4754 26.7651 26.1096 26.3387 26.6078C25.0168 28.1522 22.9515 28.9964 19.9965 28.9964C17.0409 28.9964 14.9774 28.1519 13.6587 26.6077L12.8983 27.257L13.6587 26.6076C13.2336 26.1098 13 25.4766 13 24.8219V24.2442C13 23.5544 13.5591 22.9953 14.2489 22.9953H25.7506ZM19.9965 11C22.2056 11 23.9965 12.7909 23.9965 15C23.9965 17.2091 22.2056 19 19.9965 19C17.7873 19 15.9965 17.2091 15.9965 15C15.9965 12.7909 17.7873 11 19.9965 11Z" stroke="#1B59DE" stroke-width="2"/>
<path d="M3 14H11V16H3V14Z" fill="#1B59DE"/>
<path d="M29 14H37V16H29V14Z" fill="#1B59DE"/>
<path d="M34 11L34 19H32L32 11L34 11Z" fill="#1B59DE"/>
</svg>
