<svg width="40" height="40" viewBox="0 0 40 40" fill="none" xmlns="http://www.w3.org/2000/svg">
<path d="M2 30V31C2 32.6569 3.34315 34 5 34H9C10.6569 34 12 32.6569 12 31V30H10V31C10 31.5523 9.55228 32 9 32H5C4.44772 32 4 31.5523 4 31V30H2Z" fill="#1B59DE"/>
<path d="M28 30V31C28 32.6569 29.3431 34 31 34H35C36.6569 34 38 32.6569 38 31V30H36V31C36 31.5523 35.5523 32 35 32H31C30.4477 32 30 31.5523 30 31V30H28Z" fill="#1B59DE"/>
<path d="M19 4.99824C18.7581 4.99728 18.5211 4.99612 18.2888 4.99498C11.5573 4.96202 8.85056 4.94876 7 10.4984C5.99119 13.5237 4.72796 15.0229 3.72364 16.2148C2.73685 17.3859 2 18.2604 2 19.9944V30.9902H4V19.9944C4 19.0362 4.27922 18.659 5.27976 17.4714C6.347 16.2046 7.78101 14.4784 8.89737 11.1306C9.35343 9.76291 9.81202 8.93904 10.2643 8.41499C10.6835 7.92925 11.165 7.62138 11.8465 7.40849C12.5835 7.17829 13.5534 7.05944 14.9402 7.01424C15.9089 6.98266 16.9812 6.98793 18.235 6.9941C18.4827 6.99531 18.7375 6.99656 19 6.99757V4.99824Z" fill="#1B59DE"/>
<path d="M19 4.99824C19.2419 4.99728 21.4789 4.99612 21.7112 4.99498C28.4427 4.96202 31.1494 4.94876 33 10.4984C34.0088 13.5237 35.272 15.0229 36.2764 16.2148C37.2632 17.3859 38 18.2604 38 19.9944V30.9902H36V19.9944C36 19.0362 35.7208 18.659 34.7202 17.4714C33.653 16.2046 32.219 14.4784 31.1026 11.1306C30.6466 9.76291 30.188 8.93904 29.7357 8.41499C29.3165 7.92925 28.835 7.62138 28.1535 7.40849C27.4165 7.17829 26.4466 7.05944 25.0598 7.01424C24.0911 6.98266 23.0188 6.98793 21.765 6.9941C21.5173 6.99531 19.2625 6.99656 19 6.99757V4.99824Z" fill="#1B59DE"/>
<path d="M0 10H3C4.10457 10 5 10.8954 5 12V13H2C0.89543 13 0 12.1046 0 11V10Z" fill="#1B59DE"/>
<path d="M6 20H11C12.1046 20 13 20.8954 13 22V23H8C6.89543 23 6 22.1046 6 21V20Z" fill="#1B59DE"/>
<path d="M34 20H29C27.8954 20 27 20.8954 27 22V23H32C33.1046 23 34 22.1046 34 21V20Z" fill="#1B59DE"/>
<path d="M40 10H37C35.8954 10 35 10.8954 35 12V13H38C39.1046 13 40 12.1046 40 11V10Z" fill="#1B59DE"/>
<path d="M9 15H31V17H9V15Z" fill="#1B59DE"/>
<path d="M7 28H33V30H7V28Z" fill="#1B59DE"/>
</svg>
