<svg width="40" height="40" viewBox="0 0 40 40" fill="none" xmlns="http://www.w3.org/2000/svg">
<path fill-rule="evenodd" clip-rule="evenodd" d="M20 31C26.0751 31 31 26.0751 31 20C31 13.9249 26.0751 9 20 9C13.9249 9 9 13.9249 9 20C9 26.0751 13.9249 31 20 31ZM20 33C27.1797 33 33 27.1797 33 20C33 12.8203 27.1797 7 20 7C12.8203 7 7 12.8203 7 20C7 27.1797 12.8203 33 20 33Z" fill="#1B59DE"/>
<path d="M15 3C15 2.44772 15.4477 2 16 2H24C24.5523 2 25 2.44772 25 3C25 3.55228 24.5523 4 24 4H16C15.4477 4 15 3.55228 15 3Z" fill="#1B59DE"/>
<path d="M29.7071 5.70711C30.0976 5.31658 30.7308 5.31658 31.1213 5.70711L33.9497 8.53553C34.3403 8.92606 34.3403 9.55922 33.9497 9.94975C33.5592 10.3403 32.9261 10.3403 32.5355 9.94975L29.7071 7.12132C29.3166 6.7308 29.3166 6.09763 29.7071 5.70711Z" fill="#1B59DE"/>
<path d="M20 12C20.5523 12 21 12.4477 21 13V21C21 21.5523 20.5523 22 20 22C19.4477 22 19 21.5523 19 21V13C19 12.4477 19.4477 12 20 12Z" fill="#1B59DE"/>
</svg>
