<svg width="40" height="40" viewBox="0 0 40 40" fill="none" xmlns="http://www.w3.org/2000/svg">
<path fill-rule="evenodd" clip-rule="evenodd" d="M35 11H5C4.44772 11 4 11.4477 4 12V29C4 29.5523 4.44772 30 5 30H35C35.5523 30 36 29.5523 36 29V12C36 11.4477 35.5523 11 35 11ZM5 9C3.34315 9 2 10.3431 2 12V29C2 30.6569 3.34315 32 5 32H35C36.6569 32 38 30.6569 38 29V12C38 10.3431 36.6569 9 35 9H5Z" fill="#1B59DE"/>
<path fill-rule="evenodd" clip-rule="evenodd" d="M14 20C15.1046 20 16 19.1046 16 18C16 16.8954 15.1046 16 14 16C12.8954 16 12 16.8954 12 18C12 19.1046 12.8954 20 14 20ZM14 22C16.2091 22 18 20.2091 18 18C18 15.7909 16.2091 14 14 14C11.7909 14 10 15.7909 10 18C10 20.2091 11.7909 22 14 22Z" fill="#1B59DE"/>
<path d="M24 15H33V17H24V15Z" fill="#1B59DE"/>
<path d="M24 19H33V21H24V19Z" fill="#1B59DE"/>
<path d="M18 24H10C8.34315 24 7 25.3431 7 27V31H9V27C9 26.4477 9.44772 26 10 26H18C18.5523 26 19 26.4477 19 27V31H21V27C21 25.3431 19.6569 24 18 24Z" fill="#1B59DE"/>
</svg>
