<svg width="40" height="40" viewBox="0 0 40 40" fill="none" xmlns="http://www.w3.org/2000/svg">
<path fill-rule="evenodd" clip-rule="evenodd" d="M25.5 23C30.7467 23 35 18.7467 35 13.5C35 8.25329 30.7467 4 25.5 4C20.2533 4 16 8.25329 16 13.5C16 18.7467 20.2533 23 25.5 23ZM25.5 25C31.8513 25 37 19.8513 37 13.5C37 7.14873 31.8513 2 25.5 2C19.1487 2 14 7.14873 14 13.5C14 19.8513 19.1487 25 25.5 25Z" fill="#1B59DE"/>
<path fill-rule="evenodd" clip-rule="evenodd" d="M25.5 17C27.433 17 29 15.433 29 13.5C29 11.567 27.433 10 25.5 10C23.567 10 22 11.567 22 13.5C22 15.433 23.567 17 25.5 17ZM25.5 19C28.5376 19 31 16.5376 31 13.5C31 10.4624 28.5376 8 25.5 8C22.4624 8 20 10.4624 20 13.5C20 16.5376 22.4624 19 25.5 19Z" fill="#1B59DE"/>
<path fill-rule="evenodd" clip-rule="evenodd" d="M10.5 33C13.5376 33 16 30.5376 16 27.5C16 24.4624 13.5376 22 10.5 22C7.46243 22 5 24.4624 5 27.5C5 30.5376 7.46243 33 10.5 33ZM10.5 35C14.6421 35 18 31.6421 18 27.5C18 23.3579 14.6421 20 10.5 20C6.35786 20 3 23.3579 3 27.5C3 31.6421 6.35786 35 10.5 35Z" fill="#1B59DE"/>
<path fill-rule="evenodd" clip-rule="evenodd" d="M26 35C27.6569 35 29 33.6569 29 32C29 30.3431 27.6569 29 26 29C24.3431 29 23 30.3431 23 32C23 33.6569 24.3431 35 26 35ZM26 37C28.7614 37 31 34.7614 31 32C31 29.2386 28.7614 27 26 27C23.2386 27 21 29.2386 21 32C21 34.7614 23.2386 37 26 37Z" fill="#1B59DE"/>
<path d="M27 13.5C27 14.3284 26.3284 15 25.5 15C24.6716 15 24 14.3284 24 13.5C24 12.6716 24.6716 12 25.5 12C26.3284 12 27 12.6716 27 13.5Z" fill="#1B59DE"/>
<path d="M12 27.5C12 28.3284 11.3284 29 10.5 29C9.67157 29 9 28.3284 9 27.5C9 26.6716 9.67157 26 10.5 26C11.3284 26 12 26.6716 12 27.5Z" fill="#1B59DE"/>
<path fill-rule="evenodd" clip-rule="evenodd" d="M16.196 6.74013L17.8197 7.90786L6.10656 24.1946L6.10141 24.202L6.10058 24.2031L6.09808 24.2064L6.09513 24.2102L6.09047 24.2164L6.0847 24.224L6.08274 24.2266L6.08107 24.2289L6.08041 24.2297L6.07905 24.2315L6.06959 24.2437C4.72167 24.4165 4.49287 23.1139 4.48316 23.0306L4.48116 23.0292L4.48283 23.0269L4.48483 23.0239L4.48579 23.0226L4.48669 23.0214L4.48754 23.0203L4.48823 23.0194L16.196 6.74013ZM4.48823 23.0194L4.49565 23.0098L4.49802 23.0116C4.4996 23.0228 4.50125 23.0339 4.50299 23.0449L4.48316 23.0306M5.293 23.6131L6.0832 24.211L6.08347 24.2129C5.94937 24.2344 4.70393 24.3197 4.50299 23.0449L5.293 23.6131ZM6.0832 24.211L5.293 23.6131L6.07726 24.1771C6.08006 24.1915 6.08201 24.2031 6.0832 24.211ZM4.49565 23.0098L4.49802 23.0116L4.49744 23.0075" fill="#1B59DE"/>
<path fill-rule="evenodd" clip-rule="evenodd" d="M28.8056 33.0667L34.4259 16.7591L36.3168 17.4108L30.6964 33.7183L28.8056 33.0667Z" fill="#1B59DE"/>
<path fill-rule="evenodd" clip-rule="evenodd" d="M25.6731 36.9925L9.49345 34.9351L9.74574 32.951L25.9254 35.0084L25.6731 36.9925Z" fill="#1B59DE"/>
</svg>
