<svg width="40" height="40" viewBox="0 0 40 40" fill="none" xmlns="http://www.w3.org/2000/svg">
<path fill-rule="evenodd" clip-rule="evenodd" d="M20 24C24.9706 24 29 19.9706 29 15C29 10.0294 24.9706 6 20 6C15.0294 6 11 10.0294 11 15C11 19.9706 15.0294 24 20 24ZM20 26C26.0751 26 31 21.0751 31 15C31 8.92487 26.0751 4 20 4C13.9249 4 9 8.92487 9 15C9 21.0751 13.9249 26 20 26Z" fill="#1B59DE"/>
<path fill-rule="evenodd" clip-rule="evenodd" d="M20 18C21.6569 18 23 16.6569 23 15C23 13.3431 21.6569 12 20 12C18.3431 12 17 13.3431 17 15C17 16.6569 18.3431 18 20 18ZM20 20C22.7614 20 25 17.7614 25 15C25 12.2386 22.7614 10 20 10C17.2386 10 15 12.2386 15 15C15 17.7614 17.2386 20 20 20Z" fill="#1B59DE"/>
<path d="M13 25.957V35.0403C13 35.4449 13.4553 35.6819 13.7867 35.45L20 31.1007L26.2133 35.45C26.5447 35.6819 27 35.4449 27 35.0403V25.957C26.3685 26.3613 25.6997 26.7125 25 27.0043V32.1594L20 28.6594L15 32.1594V27.0043C14.3003 26.7125 13.6315 26.3613 13 25.957Z" fill="#1B59DE"/>
</svg>
