<svg width="56" height="57" viewBox="0 0 56 57" fill="none" xmlns="http://www.w3.org/2000/svg">
<rect x="27" y="16.5" width="2" height="14" fill="#1B59DE"/>
<rect x="27" y="16.5" width="2" height="14" fill="#1B59DE"/>
<rect x="33" y="29.5" width="2" height="10" transform="rotate(90 33 29.5)" fill="#1B59DE"/>
<path fill-rule="evenodd" clip-rule="evenodd" d="M29.0001 14.0859V22.5002H27.0001V18.9144L23.7072 22.2073L22.293 20.793L29.0001 14.0859Z" fill="#1B59DE"/>
<path d="M17 40.2059V52.5L25.6057 47.8059C27.0981 46.9919 28.9019 46.9919 30.3943 47.8059L39 52.5V40.2059C38.3582 40.6294 37.6906 41.0168 37 41.3654V49.1309L31.352 46.0501C29.2626 44.9105 26.7374 44.9105 24.648 46.0501L19 49.1309V41.3654C18.3094 41.0168 17.6418 40.6294 17 40.2059Z" fill="#1B59DE"/>
<circle cx="28" cy="23.5" r="17" stroke="#E01F42" stroke-width="2"/>
<path fill-rule="evenodd" clip-rule="evenodd" d="M41 38.6992C45.2847 35.031 48 29.5826 48 23.5C48 12.4543 39.0457 3.5 28 3.5C16.9543 3.5 8 12.4543 8 23.5C8 29.5826 10.7153 35.031 15 38.6992V41.2501C9.54284 37.2465 6 30.787 6 23.5C6 11.3497 15.8497 1.5 28 1.5C40.1503 1.5 50 11.3497 50 23.5C50 30.787 46.4572 37.2465 41 41.2501V38.6992Z" fill="#E01F42"/>
</svg>
