<svg width="40" height="40" viewBox="0 0 40 40" fill="none" xmlns="http://www.w3.org/2000/svg">
<path fill-rule="evenodd" clip-rule="evenodd" d="M27.5104 18.5714C28.5063 16.6746 29 15.1477 29 14.1167C29 9.06173 24.9507 5 20 5C15.0493 5 11 9.06173 11 14.1167C11 15.1477 11.4937 16.6746 12.4896 18.5714C13.4538 20.4082 14.7624 22.3593 16.1057 24.1683C17.4436 25.9701 18.7861 27.591 19.7964 28.7636C19.8659 28.8443 19.9338 28.9228 20 28.9991C20.0662 28.9228 20.1341 28.8443 20.2036 28.7636C21.2139 27.591 22.5564 25.9701 23.8943 24.1683C25.2376 22.3593 26.5462 20.4082 27.5104 18.5714ZM21.3411 30.5046C24.2743 27.1448 31 18.9174 31 14.1167C31 7.9771 26.0751 3 20 3C13.9249 3 9 7.9771 9 14.1167C9 18.9174 15.7257 27.1448 18.6589 30.5046C19.4769 31.4416 20 32 20 32C20 32 20.5231 31.4416 21.3411 30.5046Z" fill="#1B59DE"/>
<path fill-rule="evenodd" clip-rule="evenodd" d="M24.2334 30.1947C26.2165 30.3832 27.9631 30.6984 29.3501 31.0946C30.395 31.3932 31.1453 31.7126 31.6227 32C31.1453 32.2874 30.395 32.6068 29.3501 32.9054C27.0408 33.5652 23.7344 34 20 34C16.2656 34 12.9592 33.5652 10.6499 32.9054C9.60503 32.6068 8.8547 32.2874 8.37733 32C8.8547 31.7126 9.60503 31.3932 10.6499 31.0946C12.0369 30.6984 13.7835 30.3832 15.7666 30.1947C15.2981 29.6323 14.7928 29.0121 14.2701 28.3493C9.39506 28.9749 6 30.3741 6 32C6 34.2091 12.268 36 20 36C27.732 36 34 34.2091 34 32C34 30.3741 30.6049 28.9749 25.7299 28.3493C25.2072 29.0121 24.7019 29.6323 24.2334 30.1947ZM32.0909 31.6405C32.0909 31.6405 32.0878 31.6469 32.0771 31.6592C32.0849 31.6466 32.0909 31.6405 32.0909 31.6405ZM7.90908 31.6405C7.90908 31.6405 7.91514 31.6466 7.92288 31.6592C7.91223 31.6469 7.90908 31.6405 7.90908 31.6405ZM7.90908 32.3595C7.90908 32.3595 7.91223 32.3531 7.92288 32.3408C7.91514 32.3534 7.90908 32.3595 7.90908 32.3595ZM32.0771 32.3408C32.0878 32.3531 32.0909 32.3595 32.0909 32.3595C32.0909 32.3595 32.0849 32.3534 32.0771 32.3408Z" fill="#1B59DE"/>
<path fill-rule="evenodd" clip-rule="evenodd" d="M20 16C21.1046 16 22 15.1046 22 14C22 12.8954 21.1046 12 20 12C18.8954 12 18 12.8954 18 14C18 15.1046 18.8954 16 20 16ZM20 18C22.2091 18 24 16.2091 24 14C24 11.7909 22.2091 10 20 10C17.7909 10 16 11.7909 16 14C16 16.2091 17.7909 18 20 18Z" fill="#1B59DE"/>
</svg>
