<svg width="232" height="26" viewBox="0 0 232 26" fill="none" xmlns="http://www.w3.org/2000/svg">
<path fill-rule="evenodd" clip-rule="evenodd" d="M95.9141 0H231.914V26H95.9141V0Z" fill="#E01F42"/>
<path d="M17.724 3.40039H3.64V8.72039C3.64 13.0604 3.36 15.7484 2.66 17.2884C1.96 18.8284 1.316 19.3044 0 19.8364L2.016 23.5604C3.388 23.1684 4.508 22.5244 5.348 21.6284C6.188 20.7324 6.86 19.2484 7.364 17.1484C7.868 15.0484 8.12 12.2484 8.12 8.77639V7.46039H12.684V23.0004H17.724V3.40039Z" fill="#E01F42"/>
<path d="M32.9094 3.40039H25.4614L19.4134 23.0004H24.7614L26.1614 18.1564H32.2094L33.6094 23.0004H38.9574L32.9094 3.40039ZM29.1854 7.62839L31.0614 14.0964H27.3094L29.1854 7.62839Z" fill="#E01F42"/>
<path d="M52.0656 23.0004H57.9736L52.1776 13.0604L57.7496 3.40039H51.8696L48.7056 9.44839L45.5416 3.40039H39.6616L45.2336 13.0604L39.4376 23.0004H45.3456L48.7056 16.6444L52.0656 23.0004Z" fill="#E01F42"/>
<path d="M75.4283 3.40039H58.9083V7.46039H64.6483V23.0004H69.6883V7.46039H75.4283V3.40039Z" fill="#E01F42"/>
<path d="M86.6399 3.40039H79.1919L73.1439 23.0004H78.4919L79.8919 18.1564H85.9399L87.3399 23.0004H92.6879L86.6399 3.40039ZM82.9159 7.62839L84.7919 14.0964H81.0399L82.9159 7.62839Z" fill="#E01F42"/>
<path d="M109.662 23.3918C112.546 23.3918 114.506 22.8878 116.27 21.4318C118.034 19.9758 118.93 17.2318 118.93 13.1998C118.93 9.16781 118.034 6.42381 116.27 4.96781C114.506 3.51181 112.546 3.00781 109.662 3.00781C108.066 3.00781 106.078 3.23181 103.754 3.70781L104.51 8.24381C106.358 7.45981 107.898 7.06781 109.13 7.06781C111.818 7.06781 113.19 8.38381 113.61 11.1838H106.778V15.2158H113.61C113.19 18.0438 111.846 19.3318 109.13 19.3318C107.87 19.3318 106.33 18.9678 104.51 18.2118L103.754 22.6358C105.966 23.1398 107.954 23.3918 109.662 23.3918Z" fill="white"/>
<path d="M133.642 23.1958L139.242 22.4398L132.494 12.5558L138.318 3.39981H132.69L126.894 13.0598L133.642 23.1958ZM121.546 3.39981V22.9998H126.586V3.39981H121.546Z" fill="white"/>
<path d="M148.94 19.3318C145.692 19.3318 144.348 17.4558 144.348 13.1998C144.348 8.94381 145.692 7.06781 148.94 7.06781C150.172 7.06781 151.712 7.45981 153.56 8.24381L154.316 3.70781C151.992 3.23181 150.004 3.00781 148.408 3.00781C145.524 3.00781 143.564 3.51181 141.8 4.96781C140.036 6.42381 139.14 9.16781 139.14 13.1998C139.14 17.2318 140.036 19.9758 141.8 21.4318C143.564 22.8878 145.524 23.3918 148.408 23.3918C150.116 23.3918 152.104 23.1398 154.316 22.6358L153.56 18.2118C151.74 18.9678 150.2 19.3318 148.94 19.3318Z" fill="white"/>
<path d="M172.836 3.39981H156.792V22.9998H161.832V7.45981H167.796V22.9998H172.836V3.39981Z" fill="white"/>
<path d="M181.136 18.9398V15.1038H187.912V11.1278H181.136V7.45981H189.061V3.39981H176.096V22.9998H189.34V18.9398H181.136Z" fill="white"/>
<path d="M196.969 22.9998V16.3638C197.613 16.4198 198.229 16.4478 198.873 16.4478C204.193 16.4478 206.853 14.2078 206.853 9.72781C206.853 5.24781 204.193 3.00781 198.873 3.00781C196.941 3.00781 194.617 3.28781 191.929 3.84781V22.9998H196.969ZM196.969 7.20781C197.641 7.12381 198.229 7.06781 198.761 7.06781C200.805 7.06781 201.813 7.96381 201.813 9.72781C201.813 11.4918 200.805 12.3878 198.761 12.3878C198.229 12.3878 197.641 12.3318 196.969 12.2478V7.20781Z" fill="white"/>
<path d="M224.664 3.39981H208.144V7.45981H213.884V22.9998H218.924V7.45981H224.664V3.39981Z" fill="white"/>
</svg>
