<svg width="75" height="24" viewBox="0 0 75 24" fill="none" xmlns="http://www.w3.org/2000/svg">
<path d="M10.936 15.9998H12.4011L9.81626 8.53312H7.93254L5.34766 15.9998H6.81277L7.5244 13.8238H10.2244L10.936 15.9998ZM8.8744 9.73846L9.85812 12.6931H7.89068L8.8744 9.73846Z" fill="#333333"/>
<path d="M18.716 13.2798C18.716 14.5705 18.266 15.0185 17.0416 15.0185C15.8172 15.0185 15.3672 14.5705 15.3672 13.2798V8.53312H14.0067V13.3011C14.0067 15.3491 14.959 16.1491 17.0416 16.1491C19.1241 16.1491 20.0765 15.3491 20.0765 13.3011V8.53312H18.716V13.2798Z" fill="#333333"/>
<path d="M28.21 8.53312H22.1193V9.66379H24.4844V15.9998H25.8448V9.66379H28.21V8.53312Z" fill="#333333"/>
<path d="M31.5609 10.1651C31.8853 9.72779 32.3772 9.51446 33.0469 9.51446C33.7167 9.51446 34.2086 9.72779 34.533 10.1651C34.8574 10.6025 35.0144 11.2958 35.0144 12.2665C35.0144 13.2371 34.8574 13.9305 34.533 14.3678C34.2086 14.8051 33.7167 15.0185 33.0469 15.0185C32.3772 15.0185 31.8853 14.8051 31.5609 14.3678C31.2365 13.9305 31.0795 13.2371 31.0795 12.2665C31.0795 11.2958 31.2365 10.6025 31.5609 10.1651ZM36.176 10.3891C35.8516 9.35446 35.1923 8.82112 34.4074 8.57579C34.0202 8.44779 33.5597 8.38379 33.0469 8.38379C32.5341 8.38379 32.0737 8.44779 31.6865 8.57579C30.9016 8.82112 30.2423 9.35446 29.9179 10.3891C29.7609 10.9011 29.6772 11.5305 29.6772 12.2665C29.6772 13.0025 29.7609 13.6318 29.9179 14.1545C30.2423 15.1785 30.9016 15.7118 31.6865 15.9678C32.0737 16.0851 32.5341 16.1491 33.0469 16.1491C33.5597 16.1491 34.0202 16.0851 34.4074 15.9678C35.1923 15.7118 35.8516 15.1785 36.176 14.1545C36.333 13.6318 36.4167 13.0025 36.4167 12.2665C36.4167 11.5305 36.333 10.9011 36.176 10.3891Z" fill="#333333"/>
<path d="M43.9778 8.53312H37.8871V9.66379H40.2522V15.9998H41.6127V9.66379H43.9778V8.53312Z" fill="#333333"/>
<path d="M47.4565 14.8691V12.7891H50.3762V11.6691H47.4565V9.66379H50.8262V8.53312H46.096V15.9998H50.9413V14.8691H47.4565Z" fill="#333333"/>
<path d="M57.9149 16.0958L59.4742 15.8291L56.5335 12.0958L59.1289 8.53312H57.5382L54.9428 12.2131L57.9149 16.0958ZM53.3207 8.53312V15.9998H54.6812V8.53312H53.3207Z" fill="#333333"/>
<path d="M66.4454 15.9998H67.9105L65.3257 8.53312H63.4419L60.8571 15.9998H62.3222L63.0338 13.8238H65.7338L66.4454 15.9998ZM64.3838 9.73846L65.3675 12.6931H63.4001L64.3838 9.73846Z" fill="#333333"/>
<path fill-rule="evenodd" clip-rule="evenodd" d="M0 0H75V24H0V0ZM1.74419 1.77778V22.2222H73.2558V1.77778H1.74419Z" fill="#E01F42"/>
</svg>
