<svg width="36" height="55" viewBox="0 0 36 55" fill="none" xmlns="http://www.w3.org/2000/svg">
<path d="M34.5 18C34.5 20.0973 33.5274 22.8159 31.8709 25.8501C30.238 28.8412 28.0422 31.9587 25.8182 34.8042C23.5985 37.644 21.3751 40.182 19.7047 42.0116C19.0341 42.7462 18.4537 43.3654 18 43.8426C17.5463 43.3654 16.9659 42.7462 16.2953 42.0116C14.6249 40.182 12.4015 37.644 10.1818 34.8042C7.95781 31.9587 5.76203 28.8412 4.12907 25.8501C2.47258 22.8159 1.5 20.0973 1.5 18C1.5 8.8873 8.8873 1.5 18 1.5C27.1127 1.5 34.5 8.8873 34.5 18Z" fill="white" stroke="#E01F42" stroke-width="3"/>
<path d="M15.2941 10H20L14.7059 24H10L15.2941 10Z" fill="#E01F42"/>
<path d="M20.7059 10H16L21.2941 24H26L20.7059 10Z" fill="#E01F42"/>
<circle cx="18" cy="52" r="3" fill="#E01F42"/>
</svg>
