<svg width="40" height="40" viewBox="0 0 40 40" fill="none" xmlns="http://www.w3.org/2000/svg">
<circle cx="20" cy="20" r="10" stroke="#1B59DE" stroke-width="2"/>
<path d="M8.99843 13.0711C5.6069 13.557 3 16.4741 3 20C3 23.5259 5.6069 26.443 8.99843 26.9289C9.46364 27.666 10.0009 28.3531 10.6003 28.9803C10.4019 28.9934 10.2017 29 10 29C5.02944 29 1 24.9706 1 20C1 15.0294 5.02944 11 10 11C10.2017 11 10.4019 11.0066 10.6003 11.0197C10.0009 11.6469 9.46364 12.334 8.99843 13.0711Z" fill="#1B59DE"/>
<path d="M29.3997 28.9803C29.5981 28.9934 29.7983 29 30 29C34.9706 29 39 24.9706 39 20C39 15.0294 34.9706 11 30 11C29.7983 11 29.5981 11.0066 29.3997 11.0197C29.9991 11.6469 30.5364 12.334 31.0016 13.0711C34.3931 13.557 37 16.4741 37 20C37 23.5259 34.3931 26.443 31.0016 26.9289C30.5364 27.666 29.9991 28.3531 29.3997 28.9803Z" fill="#1B59DE"/>
<rect x="16" y="24" width="8" height="2" fill="#1B59DE"/>
<circle cx="20" cy="20" r="2" fill="#1B59DE"/>
<path d="M20 20L24.5 15.5" stroke="#1B59DE" stroke-width="2" stroke-linecap="round" stroke-linejoin="round"/>
</svg>
