<svg width="40" height="40" viewBox="0 0 40 40" fill="none" xmlns="http://www.w3.org/2000/svg">
<path d="M6 4H30C32.2091 4 34 5.79086 34 8V32C34 34.2091 32.2091 36 30 36H6V4Z" stroke="#1B59DE" stroke-width="2"/>
<rect x="12" y="30" width="16" height="2" fill="#1B59DE"/>
<path d="M20.0006 8.85269C19.7689 8.68645 19.5197 8.54252 19.2505 8.42287C18.2888 7.99546 18.2754 7.99838 17.6213 8.00026L17.5006 8.0005H16.2645L15.7118 9.10607C15.5644 9.40074 15.3739 9.81078 15.2738 10.3114C15.1675 10.843 15.1834 11.3626 15.2894 11.8927C15.4124 12.5077 15.6751 13.2015 16.0495 14.0221L12.5245 13.563C10.9072 13.2689 9.67707 14.8208 10.1519 16.2807C10.2941 16.7181 10.3865 17.0377 10.4805 17.3631C10.5508 17.6064 10.622 17.8528 10.7157 18.154C10.8922 18.7215 11.1284 19.4042 11.5316 20.0162C11.9775 20.693 12.5945 21.2387 13.4362 21.5816C13.7023 21.69 13.979 21.7732 14.2642 21.8357C14.6441 23.0596 15.409 23.9752 16.3899 24.5788C17.6593 25.36 19.0926 25.5005 20.0006 25.5005V23.5005C19.4167 23.5005 18.6812 23.4247 18.0006 23.1552C16.933 22.7323 16.0006 21.8326 16.0006 20.0005C13.6889 20.0005 13.1516 19.2177 12.6544 17.6522C12.6366 17.5961 12.6188 17.5389 12.601 17.4808C12.5421 17.2883 12.4828 17.0847 12.4203 16.8701C12.3274 16.5509 12.2274 16.2072 12.1107 15.8392C12.0922 15.7808 12.0732 15.7218 12.0538 15.6621C12.0303 15.5898 12.092 15.5171 12.1668 15.5307L18.5006 16.5005V14.5005L18.4826 14.4644C17.0006 11.4965 17.0026 10.9965 17.5006 10.0005C19.0005 10.0005 19.0007 10.0005 20.0006 12.0004V8.85269Z" fill="#1B59DE"/>
<path d="M20.0006 8.85269C20.2323 8.68645 20.4809 8.54252 20.7501 8.42287C21.7118 7.99546 21.7252 7.99838 22.3793 8.00026L22.5 8.0005H23.7361L24.2889 9.10607C24.4362 9.40074 24.6267 9.81078 24.7268 10.3114C24.8331 10.843 24.8172 11.3626 24.7112 11.8927C24.5882 12.5077 24.3255 13.2015 23.9511 14.0221L27.4761 13.563C29.0934 13.2689 30.3235 14.8208 29.8487 16.2807C29.7065 16.7181 29.6141 17.0377 29.5201 17.3631C29.4498 17.6064 29.3786 17.8528 29.2849 18.154C29.1084 18.7215 28.8722 19.4042 28.469 20.0162C28.0231 20.693 27.4061 21.2387 26.5644 21.5816C26.2983 21.69 26.0217 21.7732 25.7364 21.8357C25.3565 23.0596 24.5916 23.9752 23.6107 24.5788C22.3413 25.36 20.9086 25.5005 20.0006 25.5005V23.5005C20.5846 23.5005 21.3194 23.4247 22 23.1552C23.0676 22.7323 24 21.8326 24 20.0005C26.3117 20.0005 26.849 19.2177 27.3462 17.6522C27.364 17.5961 27.3818 17.5389 27.3996 17.4808C27.4585 17.2883 27.5178 17.0847 27.5803 16.8701C27.6732 16.5509 27.7732 16.2072 27.8899 15.8392C27.9084 15.7808 27.9274 15.7218 27.9468 15.6621C27.9703 15.5898 27.9086 15.5171 27.8338 15.5307L21.5 16.5005V14.5005L21.518 14.4644C23 11.4965 22.998 10.9965 22.5 10.0005C21.0001 10.0005 21.0006 10.0005 20.0006 12.0004V8.85269Z" fill="#1B59DE"/>
</svg>
