<svg width="40" height="40" viewBox="0 0 40 40" fill="none" xmlns="http://www.w3.org/2000/svg">
<path fill-rule="evenodd" clip-rule="evenodd" d="M33.6254 12.7577C33.7459 12.2219 34.2343 11.8961 34.7162 12.0301L34.498 13.0002C34.7162 12.0301 34.7169 12.0303 34.7176 12.0305L34.7192 12.0309L34.7225 12.0319L34.7302 12.0341L34.7497 12.04C34.7645 12.0446 34.7827 12.0505 34.8042 12.0579C34.8469 12.0726 34.9027 12.0935 34.9685 12.1216C35.0993 12.1775 35.2741 12.2642 35.4668 12.3928C35.8507 12.6489 36.3303 13.0884 36.6517 13.803C37.3196 15.2882 37.1086 17.4494 35.2465 20.5549C33.5108 23.4494 33.7219 24.7882 33.9535 25.303C34.0818 25.5884 34.2768 25.7739 34.455 25.8927C34.5434 25.9517 34.6216 25.99 34.6735 26.0122C34.6991 26.0231 34.7171 26.0297 34.7253 26.0325C34.7266 26.0329 34.7276 26.0333 34.7284 26.0335C35.2031 26.1731 35.4903 26.7115 35.3708 27.2428C35.2503 27.7786 34.762 28.1043 34.28 27.9704L34.4981 27.0004C34.28 27.9704 34.2793 27.9702 34.2786 27.97L34.277 27.9695L34.2737 27.9686L34.266 27.9664L34.2465 27.9605C34.2317 27.9559 34.2135 27.95 34.192 27.9426C34.1493 27.9278 34.0935 27.907 34.0277 27.8789C33.8969 27.8229 33.7221 27.7363 33.5294 27.6077C33.1455 27.3516 32.6658 26.9121 32.3444 26.1975C31.6765 24.7123 31.8875 22.5511 33.7496 19.4456C35.4852 16.5511 35.2742 15.2123 35.0427 14.6974C34.9143 14.4121 34.7194 14.2266 34.5412 14.1077C34.4528 14.0488 34.3745 14.0104 34.3227 13.9883C34.2971 13.9773 34.2791 13.9708 34.2709 13.968C34.2696 13.9675 34.2686 13.9672 34.2678 13.9669C33.7931 13.8273 33.5059 13.289 33.6254 12.7577Z" fill="#1B59DE"/>
<path fill-rule="evenodd" clip-rule="evenodd" d="M4.62736 12.7577C4.74785 12.2219 5.23621 11.8961 5.71815 12.0301L5.49998 13.0002C5.71815 12.0301 5.71886 12.0303 5.71959 12.0305L5.72113 12.0309L5.72447 12.0319L5.73218 12.0341L5.75168 12.04C5.76643 12.0446 5.7847 12.0505 5.80612 12.0579C5.8489 12.0726 5.90467 12.0935 5.97045 12.1216C6.10129 12.1775 6.27602 12.2642 6.46871 12.3928C6.85266 12.6489 7.33228 13.0884 7.65367 13.803C8.32156 15.2882 8.11054 17.4494 6.2484 20.5549C4.51279 23.4494 4.72385 24.7882 4.95541 25.303C5.08376 25.5884 5.27873 25.7739 5.45695 25.8927C5.54534 25.9517 5.62359 25.99 5.67545 26.0122C5.70102 26.0231 5.71904 26.0297 5.72721 26.0325C5.72853 26.0329 5.72957 26.0333 5.73034 26.0335C6.20509 26.1731 6.49223 26.7115 6.37275 27.2428C6.25227 27.7786 5.76391 28.1043 5.28197 27.9704L5.5001 27.0004C5.28197 27.9704 5.28126 27.9702 5.28053 27.97L5.27899 27.9695L5.27565 27.9686L5.26794 27.9664L5.24845 27.9605C5.23369 27.9559 5.21542 27.95 5.194 27.9426C5.15122 27.9278 5.09545 27.907 5.02966 27.8789C4.89882 27.8229 4.7241 27.7363 4.5314 27.6077C4.14743 27.3516 3.66779 26.9121 3.34638 26.1975C2.67843 24.7123 2.88941 22.5511 4.75156 19.4456C6.48717 16.5511 6.27616 15.2123 6.04461 14.6974C5.91628 14.4121 5.72132 14.2266 5.54312 14.1077C5.45474 14.0488 5.3765 14.0104 5.32464 13.9883C5.29907 13.9773 5.28106 13.9708 5.27289 13.968C5.27157 13.9675 5.27052 13.9672 5.26976 13.9669C4.79501 13.8273 4.50788 13.289 4.62736 12.7577Z" fill="#1B59DE"/>
<path fill-rule="evenodd" clip-rule="evenodd" d="M22 6H18C16.0578 6 14.8024 6.00425 13.8774 6.12861C13.0099 6.24524 12.738 6.43354 12.5858 6.58579C12.4335 6.73803 12.2452 7.00993 12.1286 7.87741C12.0042 8.80242 12 10.0578 12 12V28C12 29.9422 12.0042 31.1976 12.1286 32.1226C12.2452 32.9901 12.4335 33.262 12.5858 33.4142C12.738 33.5665 13.0099 33.7548 13.8774 33.8714C14.8024 33.9958 16.0578 34 18 34H22C23.9422 34 25.1976 33.9958 26.1226 33.8714C26.9901 33.7548 27.262 33.5665 27.4142 33.4142C27.5665 33.262 27.7548 32.9901 27.8714 32.1226C27.9958 31.1976 28 29.9422 28 28V12C28 10.0578 27.9958 8.80242 27.8714 7.87741C27.7548 7.00993 27.5665 6.73803 27.4142 6.58579C27.262 6.43354 26.9901 6.24524 26.1226 6.12861C25.1976 6.00425 23.9422 6 22 6ZM11.1716 5.17157C10 6.34315 10 8.22876 10 12V28C10 31.7712 10 33.6569 11.1716 34.8284C12.3431 36 14.2288 36 18 36H22C25.7712 36 27.6569 36 28.8284 34.8284C30 33.6569 30 31.7712 30 28V12C30 8.22876 30 6.34315 28.8284 5.17157C27.6569 4 25.7712 4 22 4H18C14.2288 4 12.3431 4 11.1716 5.17157Z" fill="#1B59DE"/>
<path d="M16 29H24V31H16V29Z" fill="#1B59DE"/>
</svg>
