<svg width="36" height="52" viewBox="0 0 36 52" fill="none" xmlns="http://www.w3.org/2000/svg">
<path d="M6 7H30V9H6V7Z" fill="#E01F42"/>
<path fill-rule="evenodd" clip-rule="evenodd" d="M17 7V4.5C17 3.11929 15.8807 2 14.5 2C13.1193 2 12 3.11929 12 4.5C12 5.88071 13.1193 7 14.5 7H17ZM14.5 0C12.0147 0 10 2.01472 10 4.5C10 6.98528 12.0147 9 14.5 9H19V4.5C19 2.01472 16.9853 0 14.5 0Z" fill="#E01F42"/>
<path fill-rule="evenodd" clip-rule="evenodd" d="M19 7V4.5C19 3.11929 20.1193 2 21.5 2C22.8807 2 24 3.11929 24 4.5C24 5.88071 22.8807 7 21.5 7H19ZM21.5 0C23.9853 0 26 2.01472 26 4.5C26 6.98528 23.9853 9 21.5 9H17V4.5C17 2.01472 19.0147 0 21.5 0Z" fill="#E01F42"/>
<path fill-rule="evenodd" clip-rule="evenodd" d="M30.4029 45.1548C31.9745 41.7635 33 36.9378 33 31.5C33 26.0622 31.9745 21.2365 30.4029 17.8452C28.7539 14.2868 26.8773 13 25.5 13C24.1227 13 22.2461 14.2868 20.5971 17.8452C19.0255 21.2365 18 26.0622 18 31.5C18 36.9378 19.0255 41.7635 20.5971 45.1548C22.2461 48.7132 24.1227 50 25.5 50C26.8773 50 28.7539 48.7132 30.4029 45.1548ZM25.5 52C30.7467 52 35 42.8218 35 31.5C35 20.1782 30.7467 11 25.5 11C20.2533 11 16 20.1782 16 31.5C16 42.8218 20.2533 52 25.5 52Z" fill="#1B59DE"/>
<path fill-rule="evenodd" clip-rule="evenodd" d="M26.8002 39.6614C27.5177 37.6684 28 34.7831 28 31.5C28 28.2169 27.5177 25.3316 26.8002 23.3386C26.4384 22.3336 26.0545 21.6616 25.7286 21.2786C25.6307 21.1637 25.5543 21.0922 25.5 21.0486C25.4457 21.0922 25.3693 21.1637 25.2714 21.2786C24.9455 21.6616 24.5616 22.3336 24.1998 23.3386C23.4823 25.3316 23 28.2169 23 31.5C23 34.7831 23.4823 37.6684 24.1998 39.6614C24.5616 40.6664 24.9455 41.3384 25.2714 41.7214C25.3693 41.8363 25.4457 41.9078 25.5 41.9514C25.5543 41.9078 25.6307 41.8363 25.7286 41.7214C26.0545 41.3384 26.4384 40.6664 26.8002 39.6614ZM25.401 42.0149C25.401 42.0145 25.4048 42.0127 25.4126 42.0104C25.4049 42.0141 25.401 42.0153 25.401 42.0149ZM25.5874 42.0104C25.5952 42.0127 25.599 42.0145 25.599 42.0149C25.599 42.0153 25.5951 42.0141 25.5874 42.0104ZM25.599 20.9851C25.599 20.9855 25.5952 20.9873 25.5874 20.9896C25.5951 20.9859 25.599 20.9847 25.599 20.9851ZM25.4126 20.9896C25.4048 20.9873 25.401 20.9855 25.401 20.9851C25.401 20.9847 25.4049 20.9859 25.4126 20.9896ZM25.5 44C27.9853 44 30 38.4036 30 31.5C30 24.5964 27.9853 19 25.5 19C23.0147 19 21 24.5964 21 31.5C21 38.4036 23.0147 44 25.5 44Z" fill="#1B59DE"/>
<path d="M11 13V11C5.47715 11 1 20.1782 1 31.5C1 42.8218 5.47715 52 11 52V50C9.55019 50 7.57488 48.7132 5.83906 45.1548C4.18476 41.7635 3.10526 36.9378 3.10526 31.5C3.10526 26.0622 4.18476 21.2365 5.83906 17.8452C7.57488 14.2868 9.55019 13 11 13Z" fill="#1B59DE"/>
<path d="M11 50H26V52H11V50Z" fill="#1B59DE"/>
<path d="M11 11H26V13H11V11Z" fill="#1B59DE"/>
<path d="M10.0645 15C7.59896 18.7335 6 24.734 6 31.5C6 38.266 7.59896 44.2665 10.0645 48H12.6327C12.0271 47.2812 11.4197 46.3451 10.8391 45.1548C9.18476 41.7635 8.10526 36.9378 8.10526 31.5C8.10526 26.0622 9.18476 21.2365 10.8391 17.8452C11.4197 16.6549 12.0271 15.7188 12.6327 15H10.0645Z" fill="#1B59DE"/>
<path d="M15.0645 15C12.599 18.7335 11 24.734 11 31.5C11 38.266 12.599 44.2665 15.0645 48H17.6327C17.0271 47.2812 16.4197 46.3451 15.8391 45.1548C14.1848 41.7635 13.1053 36.9378 13.1053 31.5C13.1053 26.0622 14.1848 21.2365 15.8391 17.8452C16.4197 16.6549 17.0271 15.7188 17.6327 15H15.0645Z" fill="#1B59DE"/>
</svg>
