<svg width="164" height="24" viewBox="0 0 164 24" fill="none" xmlns="http://www.w3.org/2000/svg">
<path opacity="0.2" d="M12 0L14.6942 8.2918H23.4127L16.3593 13.4164L19.0534 21.7082L12 16.5836L4.94658 21.7082L7.64074 13.4164L0.587322 8.2918H9.30583L12 0Z" fill="#E01F42"/>
<path opacity="0.2" d="M47 0L49.6942 8.2918H58.4127L51.3593 13.4164L54.0534 21.7082L47 16.5836L39.9466 21.7082L42.6407 13.4164L35.5873 8.2918H44.3058L47 0Z" fill="#E01F42"/>
<path opacity="0.2" d="M82 0L84.6942 8.2918H93.4127L86.3593 13.4164L89.0534 21.7082L82 16.5836L74.9466 21.7082L77.6407 13.4164L70.5873 8.2918H79.3058L82 0Z" fill="#E01F42"/>
<path opacity="0.2" d="M117 0L119.694 8.2918H128.413L121.359 13.4164L124.053 21.7082L117 16.5836L109.947 21.7082L112.641 13.4164L105.587 8.2918H114.306L117 0Z" fill="#E01F42"/>
<path opacity="0.2" d="M152 0L154.694 8.2918H163.413L156.359 13.4164L159.053 21.7082L152 16.5836L144.947 21.7082L147.641 13.4164L140.587 8.2918H149.306L152 0Z" fill="#E01F42"/>
</svg>
