<svg width="40" height="40" viewBox="0 0 40 40" fill="none" xmlns="http://www.w3.org/2000/svg">
<circle cx="20" cy="20" r="18" stroke="#1B59DE" stroke-width="2"/>
<circle cx="20" cy="13" r="2" stroke="#1B59DE" stroke-width="2"/>
<circle cx="20" cy="27" r="2" stroke="#1B59DE" stroke-width="2"/>
<circle cx="11" cy="13" r="2" stroke="#1B59DE" stroke-width="2"/>
<circle cx="11" cy="27" r="2" stroke="#1B59DE" stroke-width="2"/>
<circle cx="28" cy="13" r="2" stroke="#1B59DE" stroke-width="2"/>
<path d="M29.5 29.4779V29.5H28.8758L27.307 27.4265H26.0421V29.5H25.5V24.5H27.6109C27.9394 24.5 28.2379 24.5662 28.5062 24.6985C28.7799 24.826 28.9962 25.0025 29.155 25.2279C29.3138 25.4485 29.3932 25.6961 29.3932 25.9706C29.3932 26.348 29.2591 26.6667 28.9908 26.9265C28.7225 27.1814 28.3611 27.3407 27.9066 27.4044L29.5 29.4779ZM27.5862 26.9853C27.975 26.9853 28.2817 26.8922 28.5062 26.7059C28.7361 26.5196 28.8511 26.277 28.8511 25.9779C28.8511 25.7868 28.7964 25.6127 28.6869 25.4559C28.5828 25.2941 28.4377 25.1691 28.2515 25.0809C28.0654 24.9877 27.8518 24.9412 27.6109 24.9412H26.0421V26.9853H27.5862Z" fill="#1B59DE"/>
<path fill-rule="evenodd" clip-rule="evenodd" d="M25 24H27.6109C28.0065 24 28.38 24.0798 28.7223 24.2476C29.0645 24.4079 29.3497 24.6368 29.5623 24.9379C29.782 25.244 29.8932 25.5932 29.8932 25.9706C29.8932 26.4818 29.7053 26.9306 29.3386 27.2857L29.3352 27.289C29.1628 27.4527 28.9663 27.5824 28.7499 27.6813L30 29.308V30H28.6271L27.0583 27.9265H26.5421V30H25V24ZM26.5421 25.4412V26.4853H27.5862C27.8974 26.4853 28.0782 26.4113 28.1869 26.3211L28.1914 26.3173C28.3028 26.2271 28.3511 26.1279 28.3511 25.9779C28.3511 25.8892 28.3278 25.8151 28.2769 25.7421L28.2715 25.7343L28.2663 25.7263C28.2164 25.6488 28.1455 25.5839 28.0374 25.5327L28.0278 25.5281C27.9212 25.4748 27.7864 25.4412 27.6109 25.4412H26.5421Z" fill="#1B59DE"/>
<rect x="27" y="15" width="2" height="4" fill="#C4C4C4"/>
<path d="M10 15H12V25H10V15Z" fill="#1B59DE"/>
<path d="M19 15H21V25H19V15Z" fill="#1B59DE"/>
<path d="M19 19V21L10 21L10 19L19 19Z" fill="#1B59DE"/>
<path d="M21 21H26C27.6569 21 29 19.6569 29 18V15H27V18C27 18.5523 26.5523 19 26 19H21V21Z" fill="#1B59DE"/>
</svg>
