<svg width="40" height="40" viewBox="0 0 40 40" fill="none" xmlns="http://www.w3.org/2000/svg">
<path d="M8 17H14V19H8V17Z" fill="#1B59DE"/>
<path d="M8 22H14V24H8V22Z" fill="#1B59DE"/>
<path d="M8 27H14V29H8V27Z" fill="#1B59DE"/>
<path d="M17 17H23V19H17V17Z" fill="#1B59DE"/>
<path d="M17 22H23V24H17V22Z" fill="#1B59DE"/>
<path d="M17 27H23V29H17V27Z" fill="#1B59DE"/>
<path d="M26 17H32V19H26V17Z" fill="#1B59DE"/>
<path d="M26 22H32V24H26V22Z" fill="#1B59DE"/>
<path d="M26 27H32V29H26V27Z" fill="#1B59DE"/>
<path d="M12 4H14V12H12V4Z" fill="#1B59DE"/>
<path d="M10 7H6C3.79086 7 2 8.79086 2 11V31C2 33.2091 3.79086 35 6 35H34C36.2091 35 38 33.2091 38 31V11C38 8.79086 36.2091 7 34 7H30V9H34C35.1046 9 36 9.89543 36 11V31C36 32.1046 35.1046 33 34 33H6C4.89543 33 4 32.1046 4 31V11C4 9.89543 4.89543 9 6 9H10V7Z" fill="#1B59DE"/>
<path d="M12 9H28V7H12V9Z" fill="#1B59DE"/>
<path d="M26 4H28V12H26V4Z" fill="#1B59DE"/>
</svg>
